<?xml version="1.0" encoding="UTF-8" standalone="no"?>
<svg
   xmlns:dc="http://purl.org/dc/elements/1.1/"
   xmlns:cc="http://creativecommons.org/ns#"
   xmlns:rdf="http://www.w3.org/1999/02/22-rdf-syntax-ns#"
   xmlns:svg="http://www.w3.org/2000/svg"
   xmlns="http://www.w3.org/2000/svg"
   version="1.1"
   id="svg4156"
   viewBox="0 0 200 100"
   height="100"
   width="200">
  <defs
     id="defs4158" />
  <metadata
     id="metadata4161">
    <rdf:RDF>
      <cc:Work
         rdf:about="">
        <dc:format>image/svg+xml</dc:format>
        <dc:type
           rdf:resource="http://purl.org/dc/dcmitype/StillImage" />
        <dc:title></dc:title>
      </cc:Work>
    </rdf:RDF>
  </metadata>
  <g
     transform="translate(0,-952.36216)"
     id="layer1">
    <path
       style="fill:#ffffff;fill-rule:evenodd;stroke:none;stroke-width:1"
       id="Shape"
       d="m 191.00191,957.31294 c -3.98605,0.0589 -7.1699,3.33637 -7.1122,7.32108 l 0,73.02328 c 0,3.986 3.23242,7.2173 7.21984,7.2173 3.98739,0 7.21984,-3.2313 7.21984,-7.2173 l 0,-73.02328 c 0.0283,-1.95088 -0.7348,-3.83009 -2.11527,-5.20933 -1.38046,-1.37928 -3.2607,-2.14105 -5.21221,-2.11175 l 0,0 z m -78.13967,0.009 c -2.41886,-0.062 -4.70791,1.09179 -6.09672,3.07255 -1.3888,1.98077 -1.69268,4.52531 -0.80935,6.77726 l 27.44588,73.02315 c 1.0607,2.8202 3.76224,4.685 6.77618,4.6774 3.01391,-0.01 5.70603,-1.886 6.75247,-4.7114 l 27.03108,-73.02458 c 0.92349,-2.42487 0.47387,-5.15869 -1.17766,-7.16035 -1.65152,-2.00167 -4.25074,-2.96307 -6.80784,-2.51813 -2.55712,0.44497 -4.67848,2.2278 -5.5563,4.66959 l -20.31137,54.87357 -20.63297,-54.90623 c -1.00825,-2.80256 -3.63501,-4.69823 -6.6134,-4.77267 z M 88.488084,957.0054 c -3.986039,0.059 -7.169889,3.33637 -7.112191,7.32109 l 0,73.02461 c 0,3.986 3.232438,7.2173 7.219831,7.2173 3.98742,0 7.219852,-3.2313 7.219852,-7.2173 l 0,-73.0233 c 0.02858,-1.9511 -0.734287,-3.83066 -2.114785,-5.2102 -1.380506,-1.37954 -3.260959,-2.14151 -5.212707,-2.1122 z m -52.16135,0.41203 c -2.94894,0.0376 -5.57864,1.86412 -6.642249,4.61392 L 1.4470448,1035.059 c -0.9677981,2.4134 -0.5621852,5.1608 1.0618042,7.1918 1.623991,2.031 4.2153015,3.0319 6.783469,2.62 2.56817,-0.4119 4.716179,-2.1729 5.623005,-4.61 l 7.307787,-18.9044 29.295464,0 7.668787,19.0015 c 0.930833,2.4397 3.107197,4.1864 5.691112,4.5679 2.583915,0.3814 5.172421,-0.6621 6.768899,-2.7286 1.596457,-2.0665 1.95192,-4.834 0.9295,-7.2366 L 43.114689,961.93471 c -1.113988,-2.76061 -3.80912,-4.55434 -6.786642,-4.5168 l -0.0013,0 z" />
  </g>
</svg>
