<?xml version="1.0" encoding="UTF-8"?>
<svg width="83px" height="83px" viewBox="0 0 83 83" version="1.1" xmlns="http://www.w3.org/2000/svg" xmlns:xlink="http://www.w3.org/1999/xlink">
    <!-- Generator: Sketch 46.2 (44496) - http://www.bohemiancoding.com/sketch -->
    <title>Znak</title>
    <desc>Created with Sketch.</desc>
    <defs></defs>
    <g id="Page-1" stroke="none" stroke-width="1" fill="none" fill-rule="evenodd">
        <g id="main" transform="translate(-97.000000, -2775.000000)">
            <g id="Znak" transform="translate(99.000000, 2777.000000)">
                <path d="M37.0907897,22.1135674 L25.217999,52.8187787 C24.8110756,53.8335468 24.9816209,54.9886829 25.6644483,55.8426669 C26.3472758,56.6966509 27.4368249,57.1174626 28.5166444,56.9442579 C29.596464,56.7710532 30.4996211,56.0306083 30.8809079,55.0059387 L33.9535603,47.0573444 L46.271215,47.0573444 L49.495651,55.0467686 C49.8870334,56.0725383 50.8021073,56.8070061 51.8885463,56.9673836 C52.9749853,57.1277611 54.0633588,56.6890373 54.7346157,55.8201319 C55.4058726,54.9512265 55.5553302,53.7876455 55.1254435,52.777397 L42.7376923,22.0727375 C42.2693026,20.9120029 41.1360972,20.1578079 39.8841603,20.173594 C38.6436894,20.1893401 37.5379983,20.9573854 37.0907897,22.1135674 Z" id="Shape" fill="#313132"></path>
                <circle id="Oval-2" stroke="#313132" stroke-width="3" cx="39.5" cy="39.5" r="39.5"></circle>
            </g>
        </g>
    </g>
</svg>